<svg xmlns="http://www.w3.org/2000/svg" viewBox="0 0 960 520">
  <defs><linearGradient id="bg" x2="0" y2="1"><stop stop-color="#536678"/><stop offset="1" stop-color="#192a3a"/></linearGradient><linearGradient id="body" x2="0" y2="1"><stop stop-color="#eff0e9"/><stop offset="1" stop-color="#87949a"/></linearGradient></defs>
  <rect width="960" height="520" fill="url(#bg)"/><path d="M0 405 960 326v194H0Z" fill="#111c29" opacity=".46"/><path d="M92 347 395 326 461 165 489 165 481 318 688 303 804 247 833 250 806 316 925 327 947 342 925 356 806 363 833 427 804 430 688 380 481 375 488 466 461 466 394 374 92 365Z" fill="url(#body)" stroke="#d9dfdf" stroke-width="4"/><path d="m393 349 80 22 18 95h-30l-68-117Zm89-31 205 8 117 39-24 5-117-27-181-9Z" fill="#667a88"/><path d="M606 328a16 16 0 1 0 0 32 16 16 0 0 0 0-32Z" fill="#d7b55f"/><g fill="#d4dadd"><path d="m648 305 13-38 17 1-8 43Zm0 72 22-2 8 39-17 1Z"/></g><text x="48" y="70" fill="#f1e5c8" font-family="Arial,sans-serif" font-size="23" letter-spacing="5">LIAISON & TRANSPORT</text><text x="48" y="462" fill="#d4dde1" font-family="Arial,sans-serif" font-size="18" letter-spacing="4">FALCON 7X</text>
</svg>
