<svg xmlns="http://www.w3.org/2000/svg" viewBox="0 0 960 520">
  <defs><linearGradient id="bg" x2="0" y2="1"><stop stop-color="#586c6a"/><stop offset="1" stop-color="#1a2b2b"/></linearGradient><linearGradient id="body" x2="0" y2="1"><stop stop-color="#d9dfd9"/><stop offset="1" stop-color="#7c8a82"/></linearGradient></defs>
  <rect width="960" height="520" fill="url(#bg)"/><path d="M0 411 960 316v204H0Z" fill="#111d1d" opacity=".5"/><path d="M112 340 395 325 459 252 484 252 478 319 689 303 789 271 817 274 792 319 923 331 944 346 923 360 792 368 815 413 788 417 687 382 478 378 483 436 459 436 393 375 112 361Z" fill="url(#body)" stroke="#d0d9d2" stroke-width="4"/><path d="m395 348 79 29 11 57h-27l-63-86Zm84-31 207 4 109 26-26 6-109-17-181-6Z" fill="#5e7375"/><path d="M580 327a14 14 0 1 0 0 28 14 14 0 0 0 0-28Z" fill="#d7b55f"/><path d="M338 318 188 224 180 230 303 328M641 315 783 222 792 228 676 328" fill="#b9c3bb" stroke="#dbe1dc" stroke-width="4"/><path d="M456 243 449 199 468 181 485 202 479 253Z" fill="#c4cdc5"/><text x="48" y="70" fill="#f1e5c8" font-family="Arial,sans-serif" font-size="23" letter-spacing="5">UNMANNED AVIATION</text><text x="48" y="462" fill="#d4dde1" font-family="Arial,sans-serif" font-size="18" letter-spacing="4">MQ-9B SKYGUARDIAN</text>
</svg>
